# xmcd
#
# Track frame offsets: 
#        150
#        17104
#        41466
#        100345
#        139493
#        214069
#        251866
#        276189
#        294747
#
# Disc length: 4234 seconds
#
# Revision: 0
# Processed by: cddbd v1.5.2PL0 Copyright (c) Steve Scherf et al.
# Submitted via: ExactAudioCopy v0.95a5
#
DISCID=8f108809
DTITLE=Jimi Hendrix - Live in Scandinavia Vol2 Copenhagen 1969-01-10 C
DTITLE=D3
DYEAR=1969
DGENRE=Blues
TTITLE0=Fire
TTITLE1=Foxy Lady
TTITLE2=Tax Free
TTITLE3=Spanish Castle Magic
TTITLE4=Red House
TTITLE5=The Sunshine Of Your Love
TTITLE6=I Don't Live Today
TTITLE7=Star Spangled Banner
TTITLE8=Purple Haze
EXTD=
EXTT0=
EXTT1=
EXTT2=
EXTT3=
EXTT4=
EXTT5=
EXTT6=
EXTT7=
EXTT8=
PLAYORDER=
